PathFileType	4	(X/Y/Z)	Kaydara	
DataRate	CameraRate	NumFrames	NumMarkers	Units	OrigDataRate	OrigDataStartFrame	OrigNumFrames	
240.00	240.00	4	72	mm	240.00	134	355	
Frame#	Time	Hips			RightUpLeg			RightLeg			RightFoot			RightFoot_End			LeftUpLeg			LeftLeg			LeftFoot			LeftFoot_End			Spine			Spine1			Spine2			Spine3			Neck			Head			Head_End			RightShoulder			RightArm			RightForeArm			RightHand			RightHandThumb1			RightHandThumb2			RightHandThumb3			RightHandThumb3_End			RightInHandIndex			RightHandIndex1			RightHandIndex2			RightHandIndex3			RightHandIndex3_End			RightInHandMiddle			RightHandMiddle1			RightHandMiddle2			RightHandMiddle3			RightHandMiddle3_End			RightInHandRing			RightHandRing1			RightHandRing2			RightHandRing3			RightHandRing3_End			RightInHandPinky			RightHandPinky1			RightHandPinky2			RightHandPinky3			RightHandPinky3_End			LeftShoulder			LeftArm			LeftForeArm			LeftHand			LeftHandThumb1			LeftHandThumb2			LeftHandThumb3			LeftHandThumb3_End			LeftInHandIndex			LeftHandIndex1			LeftHandIndex2			LeftHandIndex3			LeftHandIndex3_End			LeftInHandMiddle			LeftHandMiddle1			LeftHandMiddle2			LeftHandMiddle3			LeftHandMiddle3_End			LeftInHandRing			LeftHandRing1			LeftHandRing2			LeftHandRing3			LeftHandRing3_End			LeftInHandPinky			LeftHandPinky1			LeftHandPinky2			LeftHandPinky3			LeftHandPinky3_End			
		X1	Y1	Z1	X2	Y2	Z2	X3	Y3	Z3	X4	Y4	Z4	X5	Y5	Z5	X6	Y6	Z6	X7	Y7	Z7	X8	Y8	Z8	X9	Y9	Z9	X10	Y10	Z10	X11	Y11	Z11	X12	Y12	Z12	X13	Y13	Z13	X14	Y14	Z14	X15	Y15	Z15	X16	Y16	Z16	X17	Y17	Z17	X18	Y18	Z18	X19	Y19	Z19	X20	Y20	Z20	X21	Y21	Z21	X22	Y22	Z22	X23	Y23	Z23	X24	Y24	Z24	X25	Y25	Z25	X26	Y26	Z26	X27	Y27	Z27	X28	Y28	Z28	X29	Y29	Z29	X30	Y30	Z30	X31	Y31	Z31	X32	Y32	Z32	X33	Y33	Z33	X34	Y34	Z34	X35	Y35	Z35	X36	Y36	Z36	X37	Y37	Z37	X38	Y38	Z38	X39	Y39	Z39	X40	Y40	Z40	X41	Y41	Z41	X42	Y42	Z42	X43	Y43	Z43	X44	Y44	Z44	X45	Y45	Z45	X46	Y46	Z46	X47	Y47	Z47	X48	Y48	Z48	X49	Y49	Z49	X50	Y50	Z50	X51	Y51	Z51	X52	Y52	Z52	X53	Y53	Z53	X54	Y54	Z54	X55	Y55	Z55	X56	Y56	Z56	X57	Y57	Z57	X58	Y58	Z58	X59	Y59	Z59	X60	Y60	Z60	X61	Y61	Z61	X62	Y62	Z62	X63	Y63	Z63	X64	Y64	Z64	X65	Y65	Z65	X66	Y66	Z66	X67	Y67	Z67	X68	Y68	Z68	X69	Y69	Z69	X70	Y70	Z70	X71	Y71	Z71	X72	Y72	Z72	

134	0.554	1921.0129	906.651	56.2195	1986.2456974465513	886.1793312034248	-1.7235088028228431	1906.903535752338	483.4927148064384	-83.02726938377968	1915.3467464504315	104.92869819474132	-166.05250957839823	1840.6667332200607	28.39401942087504	-7.636925725643047	1864.126060465238	898.523027379926	125.7768151895157	1802.6467777410367	495.6154580567052	222.33911944167565	1753.1019950066802	64.40291310753746	295.6877167545938	1622.5876468960814	-12.972635451862057	179.57511925580437	1881.5813331414524	1034.4841427523784	5.786313460104073	1833.2652379169651	1102.6669088331073	-43.22680553378321	1778.0464780312736	1168.0120996761661	-96.53149877413144	1718.3492251832572	1221.0066414806038	-151.24256456532999	1654.039087193754	1277.7110039067686	-209.01789798092742	1594.2822651717188	1329.1961156643922	-260.7059088171384	1474.4931768679066	1422.2354244013222	-309.79004949186555	1694.6405193553035	1258.232657811175	-211.24391197749202	1746.2858968354062	1247.0726660224238	-316.07945068852257	1753.2305388209147	994.6942833204948	-299.002531811661	1787.4137599212663	805.6851667301744	-372.34143124223255	1792.8502868000683	799.9573345198246	-386.5324303998337	1783.82054222769	792.6429395803755	-399.3242217056768	1777.630382247531	785.3331144274632	-407.21813269286446	1772.553893318647	777.3434365153942	-412.9312506589377	1795.3185446174705	790.7497652100668	-384.23687225701633	1800.7572423171375	762.9008556806584	-398.4882733929011	1795.901670084062	747.4628587159492	-408.20072550335794	1787.6382602086874	743.995067783795	-413.8467415169112	1777.2609262779238	745.2596496997711	-418.2553801359609	1794.985546627017	785.8790686720553	-380.9723880121213	1800.1126294424323	756.0803905192705	-393.10707188319174	1794.7418656436153	738.6870478894132	-403.22806349946643	1784.7376213018274	734.240608522699	-409.8107598807066	1773.3660417589551	735.4966038723509	-414.52328474272366	1794.7009484329878	783.0885254409509	-378.3006429934838	1799.3105283353116	753.7848580354406	-386.8514644180788	1794.5463062275078	738.1128609764653	-395.16607942845155	1784.852302976934	733.5520855145016	-401.24643648135543	1774.1392427174137	734.6042306100627	-405.54983161582294	1793.510656350483	781.1521877201507	-374.8219168490393	1797.3066521099227	752.8707796381043	-380.5189158019044	1793.3413238454357	739.650846304215	-386.34889376416436	1786.197766193037	735.9999151617479	-390.3833660397051	1776.665889498035	736.7453145842488	-393.96494923399825	1655.6746628014039	1260.1662925778608	-167.01685525968153	1602.612248868442	1212.2388768020983	-73.61043073656577	1698.750063126847	1023.694254373979	-186.28602422051975	1812.7991693595386	856.6612152772027	-293.03924033740714	1799.2911943417066	855.4932728221073	-312.1951690349267	1794.3168027215738	839.5786555211045	-340.8172970497286	1791.156491925679	826.0564863232088	-360.45901514499207	1788.7818122842748	812.6969349048105	-376.5847504245614	1798.1286027329902	847.2563506445704	-312.1856691842309	1781.2199356387462	821.1750110514796	-343.5083732214503	1774.8613528993724	799.7439916396903	-369.17763403737933	1774.9413200844551	788.630192799526	-385.06771176934933	1777.7279600453546	780.9219286450445	-398.1737175368076	1799.8006085644354	841.3738586656755	-310.48874682202484	1784.2112464206243	812.7540002701456	-340.1209983388416	1777.5549795248148	788.6728128299711	-367.8105934848743	1777.7869032585568	774.9305967635156	-386.8275020987362	1780.9018363656437	766.3340728905075	-401.0930397325132	1801.357067349244	837.895611828587	-308.45557649760167	1788.572306362468	809.2627684941792	-333.1447097927685	1783.0843271997012	787.6074270938622	-356.90499684722414	1783.474604310037	773.9982475417576	-375.04966402561644	1786.482371636622	765.747723273738	-388.36872703181535	1804.0842871573411	834.5464027786162	-305.4803625808619	1793.8451523878543	806.2521964533229	-326.18361258116136	1789.9960757324425	787.9970057232811	-344.5189698628887	1790.544620959314	777.6280896850856	-357.41950808962076	1793.3608773138917	770.064907506921	-369.02565572804616
135	0.558	1921.0129	906.651	56.2195	1985.9319881705262	886.0499325363342	-1.822103664301315	1906.6460804573333	483.31853327941127	-82.91868944863161	1915.5890880556926	104.8823323748981	-166.1558030086026	1840.917278880251	28.322539106989005	-7.748905585689793	1864.4269615770536	898.6491980881862	125.8761684713444	1803.0364643429684	495.74483449875237	222.49547988064913	1753.262959082981	64.53825093727009	295.640497913806	1622.8127390279544	-12.901592662822255	179.50794503491278	1881.6465328950944	1034.5029990719895	5.7875275335010485	1833.3374193740476	1102.7223758903322	-43.18031282850719	1778.120508190255	1168.1119418478463	-96.42740700461167	1718.4116460931195	1221.1522292991885	-151.06720749751076	1654.0875513687663	1277.9023656315485	-208.76627533908777	1594.314433382046	1329.42758910254	-260.3804420926104	1474.4899558548796	1422.4475229040092	-309.3940044597296	1694.5987504048983	1258.339745852595	-211.0114922372203	1745.9766796382078	1247.0596832090366	-315.6301878405337	1752.882351114861	995.1701098208214	-298.21842947567586	1786.5834073050594	806.9471738855052	-371.41658408834337	1792.0549582781375	801.3953825977533	-385.62597185689674	1783.0666695336404	794.144405291605	-398.4027508663762	1776.897012362877	786.8693512484789	-406.28559257880914	1771.83045390167	778.9006287840084	-411.9889578264519	1794.4933946391297	792.1816855045574	-383.3334453838895	1799.922105596018	764.508297157857	-397.59997239360996	1795.075749744998	749.1316132546093	-407.30404240146214	1786.8345356788432	745.6625792410488	-412.93379500853626	1776.4866847007468	746.8995811977126	-417.3215138935372	1794.1387440532837	787.276447110677	-380.0658662786373	1799.2443722285614	757.6302988341519	-392.2136395818291	1793.8808590871727	740.2986559034896	-402.32500442625525	1783.9020487189507	735.848219470706	-408.88784614723244	1772.5620731215838	737.0728245274739	-413.5773685597242	1793.8388846673934	784.4576110777815	-377.39174208986645	1798.415338822673	755.2678089997595	-385.9527860424216	1793.6546087409595	739.6440266034815	-394.2584980342681	1783.9836374160009	735.0764394145531	-400.31943035533857	1773.2995788014275	736.0976672419347	-404.60107031062245	1792.6330314279635	782.4789204316204	-373.9083301234472	1796.3883069963672	754.2778819761538	-379.6124611414495	1792.4215058234413	741.087370396509	-385.4344607737885	1785.2926798794674	737.4270311132622	-389.45435603640544	1775.7853077331686	738.142487772513	-393.0164318248601	1655.8280484023676	1260.4133550916506	-166.7999479669896	1603.100471998629	1212.8437351587015	-73.42844223875495	1698.8881071849746	1024.6028091043281	-186.13345540011662	1812.0486604701532	857.7889846481947	-292.45118952342654	1798.5806319874785	856.7302164842353	-311.54044193653	1793.6182869624954	840.8739088993541	-340.02944281311323	1790.4680487423602	827.3873481802173	-359.57530650689927	1788.103207849799	814.0532074789782	-375.61844444431534	1797.4319347203025	848.4908144701927	-311.51801648507995	1780.5936293341306	822.5305490993002	-342.6880641447227	1774.2616022448683	801.1548663016652	-368.2272457136371	1774.3389525773298	790.0542694823195	-384.0377721935893	1777.1105202453796	782.3426297107328	-397.07882173490225	1799.1050065341592	842.5891409838351	-309.81671929188894	1783.5848517857116	814.0770097768456	-339.2977173529386	1776.9574497701356	790.0532451546347	-366.8452598567916	1777.1861571164213	776.3255338362627	-385.766136708468	1780.2845727550264	767.7246313138888	-399.9605748548617	1800.6606739665656	839.0945412926	-307.78454668535085	1787.9379908201133	810.5448778379523	-332.3395535522621	1782.4749378950157	788.9363889509141	-355.97614734022807	1782.861991252749	775.33950280572	-374.02825103834124	1785.854169458005	767.0840554468955	-387.2804909470793	1803.3829536136802	835.720727189816	-304.81339826620655	1793.198580569463	807.4886441381894	-325.39672633372	1789.3688346968486	789.2656141189066	-343.63380974129274	1789.9147218092448	778.9030775226737	-356.467205081298	1792.7169929839654	771.334042116633	-368.0143765866951
136	0.563	1921.0129	906.651	56.2195	1985.6169762673383	885.9214735808984	-1.920523057318335	1906.3904450935524	483.14689607481336	-82.81987686998832	1915.8496696735306	104.83736665570451	-166.26469804445287	1841.1869000088936	28.250374228355454	-7.867076171088272	1864.7294483695223	898.7744276309347	125.9751395933946	1803.4236124769145	495.87671691982825	222.66307247839987	1753.4236208900477	64.67678286856824	295.6072009973645	1623.0389371219053	-12.829306933270963	179.4543728688651	1881.710507552507	1034.5218407335135	5.7896684078413365	1833.4081167840939	1102.7783113782357	-43.13197875029349	1778.192555123939	1168.2124376514091	-96.32062418440351	1718.4718586929203	1221.2990940220272	-150.88822845918088	1654.1333273542741	1278.095216336986	-208.51023725623287	1594.3438880540357	1329.6606370547468	-260.0503154285003	1474.4867944975092	1422.6625167686846	-308.99693761367206	1694.5540495410446	1258.448531383171	-210.77471220895185	1745.652141671372	1247.047495124428	-315.18121093899254	1752.5019189371155	995.6474129399905	-297.41535998830665	1785.8444143078473	808.4927708942707	-370.67833845058055	1791.350415145161	803.1155733417448	-384.9041243091978	1782.4047997722623	795.9263749505014	-397.663118234168	1776.256551237716	788.6850619264441	-405.5326927757684	1771.2007259791474	780.736528034444	-411.22424012248376	1793.7590060725115	793.896042082592	-382.6134285063238	1799.1777790580763	766.3966769196226	-396.889433371427	1794.341604372503	751.080090935623	-406.5814746230546	1786.1236459963015	747.6089877727796	-412.19350785629604	1775.8064630063514	748.8176818757075	-416.5596528571041	1793.3828985160283	788.956603359373	-379.34223105536984	1798.4672270028057	759.461710991481	-391.4973005440562	1793.1120437828088	742.1904899171313	-401.59500943631906	1783.159957520234	737.7350862975293	-408.136218089581	1771.8528915296117	738.9275136697576	-412.80200893584305	1793.0679078154421	786.1097571676112	-376.6654966547254	1797.6114580505891	757.0329301403316	-385.23135413500955	1792.855188125863	741.4563009851431	-393.52460847522076	1783.2085100232218	736.8809946713651	-399.56437749301597	1772.554688006325	737.8705794407754	-403.8235659183839	1791.8467115790395	784.0890652081961	-373.1773410172411	1795.5615763606247	755.9678028559244	-378.88358839753334	1791.5941186181917	742.8059514960122	-384.6947192133574	1784.4809647232369	739.1355823313583	-388.6987498087756	1774.9992008606323	739.8204768523359	-392.24068812073307	1655.979320335944	1260.6615357217852	-166.57911090583542	1603.5904098186966	1213.4562771737353	-73.23506211218952	1698.9421132353173	1025.8235002489337	-186.3809401194794	1811.2064122173788	859.2165895258722	-292.24096761579455	1797.7736850189342	858.27413028865	-311.2659491633897	1792.8223626533274	842.4823391848389	-339.6229527850775	1789.6817418628475	829.0350857173323	-359.073326146585	1787.3265828548615	815.7289063667627	-375.03380847857176	1796.6390254210849	850.0306736128971	-311.22932463079763	1779.866736397563	824.1976636832067	-342.2467787442304	1773.5601762367214	802.881607885791	-367.655804113724	1773.6354209509823	791.796902017744	-383.3870035054316	1776.393143190226	784.0841257217834	-396.3634680133863	1798.3141122953311	844.1079110130331	-309.5224941573767	1782.8594410908688	815.7085026443191	-338.8516718546245	1776.2598579279231	791.7465707984762	-366.25692623486805	1776.4860338863948	778.0364779491464	-385.0819701957045	1779.5693071580479	769.4335824868475	-399.2056787385167	1799.8697517029962	840.5954493147999	-307.49049898105693	1787.2064158436874	812.1321257196605	-331.9101534015077	1781.7675296333389	790.5740470533177	-355.4226928144189	1782.1521007875997	776.992304691241	-373.3823405792129	1785.130019718502	768.7341081643036	-386.568066495298	1802.5882457849352	837.1951326530401	-304.5224790395532	1792.456776125358	809.0268954366471	-324.9841784300281	1788.6460001631394	790.8384165288031	-343.1224609596344	1789.1898896495159	780.4841149008228	-355.8886775079196	1791.9794224517047	772.9110245407462	-367.3770809960387
137	0.567	1921.0129	906.651	56.2195	1985.3014061615227	885.7939871827853	-2.01765843916949	1906.1346055028573	482.9773234255829	-82.72518667688674	1916.1288328939902	104.7939907622258	-166.37740395588017	1841.4764547493958	28.178046828162888	-7.989249815971819	1865.032601232475	898.898670791166	126.07271608462219	1803.799299980141	496.0113873851122	222.8370865485792	1753.5835450541117	64.82033098913472	295.5922862056887	1623.2662690486754	-12.75591467319842	179.41955348663654	1881.774021058414	1034.5407188866166	5.792277235696169	1833.4775293608873	1102.8345230772586	-43.082123367928425	1778.2620909608456	1168.3129879856888	-96.21131763712185	1718.5286088058645	1221.4460912661848	-150.70563340231988	1654.174405050011	1278.2879830951474	-208.24948294395335	1594.3705086168254	1329.894727428136	-259.71598099368816	1474.4849836491278	1422.8822577897768	-308.5981017839974	1694.5043119823822	1258.5569066712903	-210.53413667814698	1745.303234647589	1247.0086133186608	-314.74669875199197	1752.0834128384563	996.1027033074009	-296.6277428036906	1785.1224614479765	810.1591912254219	-370.0488802421075	1790.6622517137796	804.95460622606	-384.28843939520544	1781.7604790498858	797.825454442561	-397.02650149083183	1775.6344724489372	790.6168596378948	-404.8804142897089	1770.5900908780677	782.6878146095715	-410.55796892466367	1793.0408159322958	795.7297173093951	-381.9985247978718	1798.4492705380474	768.4027317637572	-396.2779260168954	1793.6240407266796	753.1450808475003	-405.9540735900987	1785.4303906893613	749.6711536105165	-411.5468232950655	1775.1451328830447	750.8508946712635	-415.89067091849074	1792.6433675621358	790.7566283355347	-378.72337836552674	1797.7060877278293	761.4116886697016	-390.87962969858035	1792.360085873742	744.1996989460891	-400.95944107949697	1782.4360010380278	739.7384553983507	-407.47712241564545	1771.1632266546062	740.8980159018122	-412.1183829161175	1792.3133265489855	787.8822047437596	-376.0439468059738	1796.8237368017333	758.9175644290939	-384.60904698689603	1792.072686959329	743.3871306955361	-392.8861313421035	1782.4515438980366	738.8033084017754	-398.90290130846375	1771.829264392033	739.7606239305018	-403.13888223540874	1791.0769732562412	785.820050209839	-372.55117477619905	1794.751291102634	757.778173627986	-378.2544853404987	1790.7838155383438	744.6443504151047	-384.05177595190725	1783.6872565284261	740.9634304016305	-388.038602942519	1774.2322631202567	741.6172435394371	-391.5597345676248	1656.1271075552254	1260.910120073313	-166.3533648446489	1604.0821015596082	1214.0774720134855	-73.0239242117266	1698.9346090868887	1027.1824913634466	-186.80759366519518	1810.2853714897203	860.7615111466542	-292.19188749519225	1796.8819115316494	859.9418430676191	-311.1545834248583	1791.9407750583625	844.220391317289	-339.38011841776427	1788.8096803894882	830.8157562401274	-358.7348114367179	1786.4645471251902	817.5396631886869	-374.61199981127544	1795.7620378874944	851.692179102489	-311.1019225220397	1779.051531700094	825.9906358302088	-341.96500218693205	1772.769981649013	804.7375691296364	-367.24271344531	1772.8441276505605	793.6713621623362	-382.89450296523023	1775.5897122796323	785.9599585481633	-395.80674523356794	1797.4407446218481	845.7461807021286	-309.3881051238376	1782.048298745831	817.462439382694	-338.56293727860464	1775.4762637740728	793.56571359631	-365.8244540554213	1775.70123434598	779.8762453178913	-384.55347856229884	1778.7712865068258	771.2740287471288	-398.60681144569133	1798.9975760004158	842.214221667305	-307.3553015742499	1786.3916587708366	813.8384355670622	-331.63646777810237	1780.9769433875401	792.3333992676276	-355.02350413287706	1781.360438865664	778.7695357444571	-372.8904155231566	1784.3259649536185	770.5110275585589	-386.00991445214373	1801.7139949825282	838.7854648805748	-304.3893619286533	1791.634634543399	810.6809478155467	-324.7258945456958	1787.8432126176829	792.5286454448905	-342.76393964376945	1788.386315244811	782.1843366506923	-355.4626394514404	1791.1648686093874	774.6092159953969	-366.8924509559151
